PathFileType	4	(X/Y/Z)	C:/Users/opensim2020/Desktop/walking_exp_matlab/subject03_walking14_straight_04.trc	
DataRate	CameraRate	NumFrames	NumMarkers	Units	OrigDataRate	OrigDataStartFrame	OrigNumFrames	
100.00	100.00	7	47	mm	100.00	2178	177	
Frame#	Time	LFHD			RFHD			LBHD			RBHD			C7			T10			CLAV			STRN			RBAK			LSHO			LUPA			LELB			LFRM			LWRA			LWRB			LFIN			RSHO			RUPA			RELB			RFRM			RWRA			RWRB			RFIN			LASI			RASI			LPSI			RPSI			LTHI			LKNE			LTIB			LANK			LHEE			LTOE			RTHI			RKNE			RTIB			RANK			RHEE			RTOE			*39			*40			*41			*42			*43			*44			*45			*46			
		X1	Y1	Z1	X2	Y2	Z2	X3	Y3	Z3	X4	Y4	Z4	X5	Y5	Z5	X6	Y6	Z6	X7	Y7	Z7	X8	Y8	Z8	X9	Y9	Z9	X10	Y10	Z10	X11	Y11	Z11	X12	Y12	Z12	X13	Y13	Z13	X14	Y14	Z14	X15	Y15	Z15	X16	Y16	Z16	X17	Y17	Z17	X18	Y18	Z18	X19	Y19	Z19	X20	Y20	Z20	X21	Y21	Z21	X22	Y22	Z22	X23	Y23	Z23	X24	Y24	Z24	X25	Y25	Z25	X26	Y26	Z26	X27	Y27	Z27	X28	Y28	Z28	X29	Y29	Z29	X30	Y30	Z30	X31	Y31	Z31	X32	Y32	Z32	X33	Y33	Z33	X34	Y34	Z34	X35	Y35	Z35	X36	Y36	Z36	X37	Y37	Z37	X38	Y38	Z38	X39	Y39	Z39	X40	Y40	Z40	X41	Y41	Z41	X42	Y42	Z42	X43	Y43	Z43	X44	Y44	Z44	X45	Y45	Z45	X46	Y46	Z46	X47	Y47	Z47	

1	0.000	-891.28101	1038.20386	1592.14807	-1023.39825	1048.15710	1602.13171	-889.63232	1160.76636	1535.05139	-1019.85950	1165.67725	1544.62427	-946.57184	1185.00989	1386.76978	-955.27673	1229.70801	1076.93945	-958.96686	1063.55823	1307.70361	-952.36346	1026.20117	1140.12341	-1035.63599	1248.81726	1212.83545	-801.61829	1098.07251	1348.33704	-735.76868	1063.14270	1159.53918	-740.37030	1016.06641	1046.65503	-783.64087	926.19781	970.46570	-855.80621	852.44849	907.51752	-804.68390	853.06403	885.86237	-844.26099	789.47089	850.40338	-1113.62683	1125.41187	1331.12659	-1184.77551	1168.31567	1112.63037	-1200.94263	1177.33862	1000.22174	-1208.64539	1196.59094	864.43536	-1180.65649	1188.38635	761.46594	-1220.84912	1225.68945	768.25763	-1210.00085	1229.04785	691.42688	-837.52332	1077.49963	903.84955	-1075.34644	1060.86267	913.58118	-902.23267	1234.66016	933.02667	-1049.24622	1224.51550	940.44415	-816.03149	1196.61938	616.41217	-857.77820	1246.63403	445.38226	-861.27448	1367.60815	285.71747	-907.05493	1470.44531	101.12238	-940.89734	1522.13782	83.61921	-945.08813	1338.51819	27.07556	-1138.34814	1050.95276	626.74463	-1100.07263	969.61005	469.28595	-1113.61731	942.00464	283.35767	-1077.83643	878.83624	72.70457	-1026.29602	909.98114	28.93575	-1057.37659	734.28943	72.09558				-933.15649	1129.79822	1645.70337																		 
2	0.010	-892.91730	1025.41528	1591.94727	-1025.10120	1035.00134	1601.90173	-891.63599	1147.88928	1534.70911	-1021.89856	1152.47791	1544.31445	-948.67810	1171.67749	1386.14941	-956.36871	1215.16589	1076.14038	-960.89832	1049.88464	1307.56335	-954.11340	1011.88257	1140.16687	-1037.49170	1234.74390	1211.86011	-803.50293	1084.88794	1348.19653	-737.10632	1050.84167	1159.28308	-741.36847	1004.21332	1046.35876	-784.86963	913.86121	971.40289	-857.27448	839.50684	909.71680	-806.26379	839.83350	887.82874	-845.58173	775.39301	854.27045	-1115.55237	1111.79272	1330.66382	-1186.37927	1153.57007	1111.85669	-1202.43530	1162.20410	999.45160	-1210.32349	1181.68433	863.76770	-1182.42053	1173.89087	760.68164	-1222.78064	1210.99060	767.66260	-1211.91357	1214.90088	690.74329	-838.85931	1062.62964	903.14563	-1076.80847	1045.82178	914.06384	-903.41943	1219.74512	932.16370	-1050.16260	1209.78943	940.02472	-816.50977	1182.14343	615.75055	-856.83508	1232.54541	444.43396	-860.34680	1357.93103	287.47662	-906.26880	1466.02051	106.03972	-939.76154	1518.53406	90.95967	-945.01068	1338.08142	26.92831	-1137.93616	1034.59094	627.30780	-1099.50085	954.08929	469.72144	-1112.23718	930.54688	281.62610	-1075.59961	873.61676	69.82532	-1024.22095	906.79120	27.63421	-1054.48938	729.45062	64.59304				-935.04230	1116.88916	1645.43628																		 
3	0.020	-894.50842	1012.58270	1591.99890	-1026.75391	1021.79260	1601.85632	-893.65698	1134.98975	1534.62842	-1023.88977	1139.21094	1544.15735	-950.76538	1158.47363	1385.79822	-957.58038	1200.27283	1075.39368	-962.78705	1036.08264	1307.59839	-955.87549	997.31952	1140.42834	-1039.33569	1220.54224	1210.93652	-805.53137	1071.66394	1348.18176	-738.50964	1038.55212	1159.20325	-742.48859	992.80273	1046.13025	-785.84412	901.91229	972.14264	-858.36066	826.80542	911.75873	-807.50287	827.09650	889.45563	-846.41718	761.98108	857.49481	-1117.50732	1098.07886	1330.49255	-1188.08594	1138.70898	1111.34253	-1204.03198	1146.79688	998.92474	-1212.02063	1166.29688	863.31482	-1184.14026	1158.69727	760.04071	-1224.67517	1195.62280	767.22339	-1213.91406	1199.98657	690.35345	-840.21027	1047.15576	902.60040	-1078.18799	1030.64856	914.75275	-904.55859	1204.72498	931.51849	-1051.30420	1194.93518	940.02161	-816.82111	1166.77393	614.89697	-855.68372	1217.29993	443.28842	-859.41968	1347.31458	289.28708	-904.88617	1461.62244	112.17324	-938.90045	1514.00806	99.30402	-944.95386	1337.46631	26.81902	-1137.83728	1018.04883	628.05487	-1099.18274	938.39966	470.08670	-1110.09961	919.51245	280.23749	-1074.34290	868.05634	68.58490	-1023.28333	904.62964	29.59118	-1051.05322	724.41205	52.06275				-936.49170	1103.99170	1645.62036																		 
4	0.030	-896.04950	999.68042	1592.50024	-1028.39709	1008.48297	1602.41052	-895.57446	1122.11255	1534.92493	-1025.93579	1125.87219	1544.41846	-952.86823	1145.28638	1385.71399	-959.13141	1185.39612	1075.15698	-964.68756	1022.26471	1308.12122	-957.67633	982.74255	1141.30664	-1041.03271	1206.27124	1210.32593	-807.45947	1058.45959	1348.58960	-739.97162	1026.36829	1159.29236	-743.39575	981.57977	1046.02893	-786.62933	890.32495	972.73187	-859.08832	814.61719	913.21637	-808.37115	814.96417	890.67175	-846.76782	749.17358	860.03143	-1119.54028	1084.35950	1330.69446	-1189.88562	1123.71790	1111.08411	-1205.76147	1131.16028	998.64819	-1213.75195	1150.38745	863.00085	-1185.94006	1142.77881	759.74585	-1226.35754	1179.60962	766.80652	-1215.93787	1184.13086	690.05023	-841.40717	1031.42542	902.17773	-1079.54907	1015.50702	915.56464	-905.68445	1189.51440	931.17706	-1052.32788	1179.61853	940.45831	-817.02557	1150.54077	613.93066	-854.51099	1200.73291	441.94418	-858.50867	1335.61023	291.35901	-903.82849	1455.95764	118.82205	-937.72906	1508.50708	109.00512	-944.98022	1336.59521	26.84124	-1138.16479	1001.58594	629.73206	-1098.87170	922.84070	471.29034	-1108.89270	907.41669	280.99020	-1075.02319	862.34613	68.08806	-1024.55396	902.46960	31.36277	-1047.02759	720.73706	42.61000				-939.66937	1091.10632	1646.16248																		 
5	0.040	-897.62854	986.69568	1593.53198	-1029.95337	995.13873	1603.47180	-897.51324	1108.99487	1535.72815	-1027.91321	1112.47107	1545.34900	-955.05469	1132.01428	1386.22412	-960.29523	1170.40247	1075.48462	-966.68079	1008.59003	1309.16138	-959.52637	968.24072	1142.56934	-1042.76135	1192.05457	1210.24756	-809.33734	1045.14709	1349.29919	-741.38843	1014.20251	1159.66418	-744.20996	970.44678	1046.08459	-787.08856	879.08008	973.20709	-859.42554	802.94891	914.19031	-808.90338	803.38617	891.48029	-846.71136	737.13623	861.82190	-1121.64636	1070.54187	1331.25183	-1191.75122	1108.57104	1111.28186	-1207.55688	1115.23657	998.70703	-1215.50842	1134.00720	863.01270	-1187.61243	1126.23853	759.68683	-1228.20215	1162.91638	766.74994	-1217.90308	1167.46301	690.10260	-842.92377	1015.44629	902.16290	-1080.92969	1000.29108	916.70630	-906.53290	1173.97278	931.22815	-1053.27820	1164.05444	941.60657	-817.21930	1133.09338	613.01666	-853.05573	1182.52368	440.42200	-857.64496	1322.41882	293.75070	-902.99750	1448.57117	126.18748	-937.29340	1500.94324	119.37077	-945.05170	1335.47778	26.88286	-1139.10376	985.70874	631.84259	-1099.13831	907.39996	473.93198	-1110.30615	894.29761	282.89648	-1075.37073	856.87683	68.02959	-1026.46582	900.47418	33.05515	-1045.78149	716.93390	39.59273				-941.45605	1078.20435	1647.06396																		 
6	0.050	-899.13043	973.69556	1594.88062	-1031.41516	981.68530	1604.91064	-899.46130	1096.02563	1537.11743	-1029.78406	1099.02124	1546.85657	-957.27167	1118.48987	1387.19177	-961.14471	1155.59839	1076.23535	-968.59631	994.89319	1310.64038	-961.35303	953.74115	1144.16980	-1044.72974	1177.86108	1210.65308	-811.14532	1031.89893	1350.46008	-742.77765	1002.30994	1160.50427	-744.98389	959.53119	1046.52649	-787.43567	868.13953	973.60614	-859.39728	791.57190	914.96564	-808.99567	792.52606	891.91376	-846.18726	725.73688	862.92236	-1123.67163	1056.65710	1332.25354	-1193.61853	1093.12146	1111.81738	-1209.37061	1099.03967	999.23114	-1217.18640	1117.04578	863.36469	-1189.30481	1109.01282	760.11658	-1229.96228	1145.56482	767.07990	-1219.76245	1149.78687	690.39087	-844.32214	999.66260	902.45886	-1082.35022	985.05768	918.48792	-907.23517	1158.29089	931.57910	-1053.88074	1148.68286	943.51251	-817.24634	1114.82910	612.13922	-851.35181	1162.53552	438.80994	-856.68433	1307.64282	296.41498	-902.57220	1439.47852	134.18562	-937.37903	1491.21753	130.68311	-944.98621	1334.82556	26.65252	-1140.45105	970.38379	634.19122	-1099.05286	891.50452	477.33578	-1111.38721	881.90503	284.66226	-1075.28174	854.20502	68.28520	-1026.75330	899.04034	34.28542	-1048.49316	714.40741	37.94329				-943.27887	1065.25391	1648.76819																		 
7	0.060	-900.52692	960.70209	1596.29382	-1032.82446	968.26318	1606.54504	-901.27875	1083.01233	1538.79114	-1031.64465	1085.59619	1548.66711	-959.55444	1104.78540	1388.53491	-961.94952	1140.93127	1077.29517	-970.48956	981.20447	1312.41016	-963.18115	939.25098	1146.16077	-1046.89172	1163.58594	1211.53015	-812.86743	1018.62469	1351.92163	-744.17786	990.58362	1161.62549	-745.79883	948.84222	1047.22253	-787.58575	857.60278	973.98846	-859.05396	780.80176	915.07428	-808.68640	782.30609	891.99640	-845.21655	715.06403	863.24744	-1125.62354	1042.63733	1333.58472	-1195.50586	1077.48999	1112.77612	-1211.15186	1082.49292	1000.13940	-1218.72864	1099.55420	864.02972	-1190.86304	1091.08435	760.98676	-1231.78064	1127.40186	767.73279	-1221.64917	1131.25635	691.12390	-845.80267	983.93390	902.98529	-1083.75769	970.01849	920.90979	-907.69928	1142.48267	932.07227	-1054.35083	1133.68701	945.65680	-817.11121	1095.48010	611.14905	-849.12305	1140.72168	436.92831	-855.66266	1290.92847	299.17026	-902.48352	1428.16284	142.72833	-937.97064	1478.63196	142.68808	-945.34900	1333.56091	26.49152	-1141.37695	955.20496	636.65540	-1098.88257	875.60907	480.07837	-1112.29541	870.90942	285.74374	-1074.93286	852.78650	68.53954	-1026.82642	898.26868	34.87662	-1050.70740	712.72968	36.65325				-944.23096	1052.04102	1650.43433																		 
